<svg xmlns="http://www.w3.org/2000/svg" xmlns:xlink="http://www.w3.org/1999/xlink" viewBox="0 0 60 52.5" version="1.1" x="0px" y="0px"><title>48 -Video Camera- (photography, video, record)</title><desc>Created with Sketch.</desc><g stroke="none" stroke-width="1" fill="none" fill-rule="evenodd"><g transform="translate(-959.000000, -883.000000)"><g transform="translate(960.000000, 884.000000)"><path d="M39,20 C39,20.552 38.552,21 38,21 C37.448,21 37,20.552 37,20 C37,19.448 37.448,19 38,19 C38.552,19 39,19.448 39,20" fill="#000000"/><path d="M23,35 C23,35.552 22.552,36 22,36 C21.448,36 21,35.552 21,35 C21,34.448 21.448,34 22,34 C22.552,34 23,34.448 23,35" fill="#000000"/><path d="M27,35 C27,35.552 26.552,36 26,36 C25.448,36 25,35.552 25,35 C25,34.448 25.448,34 26,34 C26.552,34 27,34.448 27,35" fill="#000000"/><path d="M31,35 C31,35.552 30.552,36 30,36 C29.448,36 29,35.552 29,35 C29,34.448 29.448,34 30,34 C30.552,34 31,34.448 31,35" fill="#000000"/><path d="M18,37 L16,37 C14.895,37 14,36.105 14,35 L14,21 C14,19.895 14.895,19 16,19 L18,19 L18,37 L18,37 Z" stroke="#000000" stroke-width="2" stroke-linecap="round" stroke-linejoin="round"/><polygon stroke="#000000" stroke-width="2" stroke-linecap="round" stroke-linejoin="round" points="8 32 14 32 14 24 8 24"/><path d="M8,32 L1.659,37.549 C1.012,38.115 0,37.655 0,36.796 L0,19.204 C0,18.345 1.012,17.885 1.659,18.451 L8,24 L8,32 L8,32 Z" stroke="#000000" stroke-width="2" stroke-linecap="round" stroke-linejoin="round"/><path d="M58,7.071 C56.047,9.024 52.882,9.024 50.929,7.071 C48.976,5.118 48.976,1.953 50.929,0 C52.3,3.252 54.699,5.66 58,7.071 L58,7.071 Z" stroke="#000000" stroke-width="2" stroke-linecap="round" stroke-linejoin="round"/><polygon stroke="#000000" stroke-width="2" stroke-linecap="round" stroke-linejoin="round" points="37 36 53 36 53 28 37 28"/><path d="M56,16 L47.657,16 L40.828,22.828 C39.266,24.391 36.734,24.391 35.172,22.828 C33.609,21.266 33.609,18.734 35.172,17.172 L36.343,16 L20,16 C18.895,16 18,16.895 18,18 L18,38 C18,39.105 18.895,40 20,40 L56,40 C57.105,40 58,39.105 58,38 L58,18 C58,16.895 57.105,16 56,16 L56,16 Z" stroke="#000000" stroke-width="2" stroke-linecap="round" stroke-linejoin="round"/><path d="M50.929,7.071 C49.767,5.909 49.313,4.319 49.534,2.809 L35.172,17.172 C33.61,18.734 33.61,21.266 35.172,22.828 C36.734,24.39 39.266,24.39 40.828,22.828 L55.191,8.466 C53.681,8.687 52.091,8.233 50.929,7.071 L50.929,7.071 Z" stroke="#000000" stroke-width="2" stroke-linecap="round" stroke-linejoin="round"/><path d="M42,32 L48,32" stroke="#000000" stroke-width="2" stroke-linecap="round" stroke-linejoin="round"/><polygon stroke="#000000" stroke-width="2" stroke-linecap="round" stroke-linejoin="round" points="18 27 26 27 26 21 18 21"/></g></g></g><text x="0" y="57" fill="#000000" font-size="5px" font-weight="bold" font-family="'Helvetica Neue', Helvetica, Arial-Unicode, Arial, Sans-serif">Created by Oliviu Stoian</text><text x="0" y="62" fill="#000000" font-size="5px" font-weight="bold" font-family="'Helvetica Neue', Helvetica, Arial-Unicode, Arial, Sans-serif">from the Noun Project</text></svg>