
<svg xmlns="http://www.w3.org/2000/svg" xmlns:xlink="http://www.w3.org/1999/xlink" version="1.1" x="0px" y="0px" viewBox="0 0 90 112.5" enable-background="new 0 0 90 90" xml:space="preserve"><g><path d="M54.022,39.247c0.604-1.216,0.953-2.58,0.953-4.027c0-5.013-4.078-9.091-9.092-9.091c-3.565,0-6.649,2.067-8.138,5.062   c-1.489-2.995-4.573-5.062-8.138-5.062c-5.013,0-9.092,4.078-9.092,9.091c0,2.146,0.751,4.118,2,5.675v16.987   c0,0.936,0.762,1.698,1.699,1.698h2.726c0.012,0.113,0.026,0.228,0.058,0.342c0.016,0.058,0.038,0.112,0.064,0.165l1.182,2.327   c0.279,0.839,1.107,1.459,1.967,1.459h17.107c0.745,0,1.467-0.534,1.73-1.263l1.434-2.48c0.062-0.107,0.101-0.226,0.114-0.348   c0.007-0.068,0.001-0.135,0.002-0.202h2.717c0.937,0,1.698-0.763,1.698-1.698V40.787C55.015,40.103,54.606,39.516,54.022,39.247z    M45.884,28.128c3.91,0,7.092,3.181,7.092,7.091c0,3.911-3.182,7.092-7.092,7.092c-3.911,0-7.092-3.181-7.092-7.092   C38.792,31.309,41.973,28.128,45.884,28.128z M29.608,28.128c3.91,0,7.091,3.181,7.091,7.091c0,3.911-3.181,7.092-7.091,7.092   c-3.911,0-7.092-3.181-7.092-7.092C22.517,31.309,25.698,28.128,29.608,28.128z M47.464,61.799   c-0.037,0.064-0.066,0.133-0.087,0.204c-0.009,0.032-0.052,0.075-0.081,0.09H30.212c-0.072,0-0.244-0.114-0.282-0.251   c-0.016-0.059-0.037-0.113-0.064-0.166l-1.049-2.097h19.929L47.464,61.799z M53.015,57.579H24.517V42.747   c1.454,0.986,3.207,1.564,5.092,1.564c3.565,0,6.648-2.068,8.138-5.062c1.489,2.995,4.573,5.062,8.138,5.062   c2.825,0,5.354-1.296,7.021-3.324c0.037,0.017,0.07,0.042,0.109,0.055V57.579z"/><path d="M69.079,39.162c-0.253-0.164-0.571-0.189-0.847-0.067l-9.851,4.375c-0.32,0.143-0.527,0.461-0.527,0.813v10.103   c0,0.352,0.207,0.671,0.527,0.813l9.851,4.374c0.116,0.052,0.239,0.077,0.361,0.077c0.169,0,0.339-0.048,0.485-0.144   c0.252-0.164,0.404-0.445,0.404-0.746V39.908C69.483,39.606,69.331,39.326,69.079,39.162z M67.704,57.391l-8.07-3.584V44.86   l8.07-3.584V57.391z"/><circle cx="29.58" cy="35.219" r="2.305"/><circle cx="46.468" cy="35.219" r="2.305"/><path d="M56.496,43.562c-0.491,0-0.89,0.398-0.89,0.89v9.766c0,0.491,0.398,0.89,0.89,0.89s0.89-0.398,0.89-0.89v-9.766   C57.386,43.96,56.987,43.562,56.496,43.562z"/><path d="M38.889,45.909H28.275c-1.103,0-2,0.897-2,2v6.143c0,1.103,0.897,2,2,2h10.613c1.103,0,2-0.897,2-2v-6.143   C40.889,46.807,39.992,45.909,38.889,45.909z M28.275,54.052v-6.143h10.613l0.001,6.143H28.275z"/></g></svg>